<svg width="26" height="26" viewBox="0 0 26 26" fill="none" xmlns="http://www.w3.org/2000/svg">
<g id="solar:crown-linear">
<g id="Group">
<path id="Vector" d="M18.9258 12.1821L18.3528 11.6068L18.9269 12.1821H18.9258ZM7.07309 12.1821L6.50001 12.7584L7.07418 12.1821H7.07309ZM8.66343 12.9556L8.98951 13.6998L8.66234 12.9556H8.66343ZM13.9837 7.34825L13.6143 6.62458L13.9826 7.34825H13.9837ZM12.0163 7.34825L12.3858 6.62458L12.0174 7.34825H12.0163ZM20.7188 13.3337L20.5205 15.1807L22.1347 15.3541L22.334 13.5081L20.7188 13.3348V13.3337ZM14.1787 21.9375H11.8213V23.5625H14.1787V21.9375ZM5.47951 15.1807L5.28126 13.3337L3.66601 13.507L3.86426 15.3541L5.47951 15.1807ZM10.1996 12.2406L12.1388 8.76525L10.7196 7.97333L8.78043 11.4498L10.1996 12.2406ZM13.8613 8.76525L15.8004 12.2406L17.2196 11.4498L15.2804 7.97333L13.8613 8.76525ZM15.8004 12.2406C15.9759 12.5548 16.1363 12.8473 16.2933 13.0693C16.4548 13.2979 16.6725 13.5514 17.0094 13.6998L17.6648 12.2124C17.7255 12.2384 17.7147 12.2666 17.6226 12.1355C17.4781 11.913 17.3436 11.6842 17.2196 11.4498L15.8004 12.2406ZM18.3528 11.6068C18.0733 11.8863 17.9064 12.051 17.7753 12.1561C17.6508 12.2568 17.6486 12.2276 17.7136 12.2189L17.9357 13.8288C18.2997 13.7778 18.5803 13.5948 18.798 13.4193C19.0093 13.2481 19.2443 13.0119 19.5 12.7584L18.3528 11.6068ZM17.0094 13.6998C17.3008 13.8277 17.6215 13.8721 17.9357 13.8288L17.7136 12.2189C17.6971 12.2213 17.6802 12.2191 17.6648 12.2124L17.0094 13.6998ZM6.50109 12.7573C6.75568 13.0119 6.99076 13.2481 7.20201 13.4182C7.41976 13.5958 7.70034 13.7778 8.06434 13.8288L8.28643 12.2189C8.35143 12.2276 8.34926 12.2568 8.22468 12.1561C8.02415 11.9817 7.83149 11.7984 7.64726 11.6068L6.50001 12.7584L6.50109 12.7573ZM8.78043 11.4498C8.65601 11.6842 8.52118 11.913 8.37634 12.1355C8.28534 12.2655 8.27451 12.2384 8.33518 12.2113L8.98951 13.6998C9.32534 13.5514 9.54634 13.299 9.70668 13.0693C9.86268 12.8462 10.0241 12.5548 10.1996 12.2406L8.78043 11.4498ZM8.06434 13.8288C8.37851 13.8721 8.69918 13.8288 8.98951 13.6998L8.33518 12.2113C8.31985 12.218 8.30297 12.2213 8.28643 12.2189L8.06434 13.8288ZM11.8213 21.9375C10.2635 21.9375 9.17259 21.9364 8.34059 21.8292C7.53026 21.7262 7.07309 21.5334 6.72968 21.2268L5.64634 22.438C6.32884 23.049 7.15218 23.3155 8.13368 23.4412C9.09351 23.5636 10.3068 23.5625 11.8213 23.5625V21.9375ZM3.86426 15.3541C4.02459 16.8469 4.15243 18.3083 4.36909 19.4935C4.47851 20.0915 4.61718 20.6548 4.80784 21.1434C4.99743 21.6288 5.25959 22.0913 5.64634 22.438L6.72968 21.2268C6.60401 21.1142 6.46101 20.9083 6.32126 20.5519C6.1618 20.1136 6.04357 19.6613 5.96809 19.201C5.76443 18.0938 5.64526 16.731 5.47951 15.1807L3.86426 15.3541ZM20.5205 15.1807C20.3537 16.731 20.2345 18.0938 20.033 19.1999C19.9323 19.7492 19.8163 20.1988 19.6788 20.5519C19.539 20.9083 19.396 21.1152 19.2703 21.2268L20.3537 22.438C20.7404 22.0913 21.0026 21.6288 21.1922 21.1434C21.3828 20.6548 21.5215 20.0915 21.6309 19.4935C21.8476 18.3083 21.9754 16.8458 22.1358 15.3541L20.5205 15.1807ZM14.1787 23.5625C15.6932 23.5625 16.9065 23.5636 17.8663 23.4412C18.8489 23.3155 19.6712 23.049 20.3537 22.438L19.2703 21.2268C18.9269 21.5334 18.4698 21.7252 17.6594 21.8292C16.8274 21.9364 15.7365 21.9375 14.1787 21.9375V23.5625ZM11.6458 5.41667C11.6458 4.66917 12.2525 4.0625 13 4.0625V2.4375C12.2099 2.4375 11.4521 2.75138 10.8934 3.31008C10.3347 3.86878 10.0208 4.62654 10.0208 5.41667H11.6458ZM13 4.0625C13.7475 4.0625 14.3542 4.66917 14.3542 5.41667H15.9792C15.9792 4.62654 15.6653 3.86878 15.1066 3.31008C14.5479 2.75138 13.7901 2.4375 13 2.4375V4.0625ZM22.4792 9.75C22.4792 9.96549 22.3936 10.1722 22.2412 10.3245C22.0888 10.4769 21.8822 10.5625 21.6667 10.5625V12.1875C22.3131 12.1875 22.9331 11.9307 23.3902 11.4736C23.8474 11.0165 24.1042 10.3965 24.1042 9.75H22.4792ZM20.8542 9.75C20.8542 9.53451 20.9398 9.32785 21.0922 9.17548C21.2445 9.0231 21.4512 8.9375 21.6667 8.9375V7.3125C21.0202 7.3125 20.4002 7.56931 19.9431 8.02643C19.486 8.48355 19.2292 9.10354 19.2292 9.75H20.8542ZM21.6667 8.9375C21.8822 8.9375 22.0888 9.0231 22.2412 9.17548C22.3936 9.32785 22.4792 9.53451 22.4792 9.75H24.1042C24.1042 9.10354 23.8474 8.48355 23.3902 8.02643C22.9331 7.56931 22.3131 7.3125 21.6667 7.3125V8.9375ZM4.33334 10.5625C4.11786 10.5625 3.91119 10.4769 3.75882 10.3245C3.60645 10.1722 3.52084 9.96549 3.52084 9.75H1.89584C1.89584 10.3965 2.15265 11.0165 2.60977 11.4736C3.06689 11.9307 3.68688 12.1875 4.33334 12.1875V10.5625ZM3.52084 9.75C3.52084 9.53451 3.60645 9.32785 3.75882 9.17548C3.91119 9.0231 4.11786 8.9375 4.33334 8.9375V7.3125C3.68688 7.3125 3.06689 7.56931 2.60977 8.02643C2.15265 8.48355 1.89584 9.10354 1.89584 9.75H3.52084ZM4.33334 8.9375C4.54883 8.9375 4.75549 9.0231 4.90787 9.17548C5.06024 9.32785 5.14584 9.53451 5.14584 9.75H6.77084C6.77084 9.10354 6.51404 8.48355 6.05692 8.02643C5.5998 7.56931 4.97981 7.3125 4.33334 7.3125V8.9375ZM21.6667 10.5625C21.6634 10.5625 21.6602 10.5625 21.6569 10.5625L21.6385 12.1875H21.6667V10.5625ZM22.334 13.5081C22.3871 13.0206 22.4326 12.5948 22.4575 12.2395C22.4881 11.9159 22.4867 11.59 22.4532 11.2667L20.8423 11.4833C20.8585 11.6025 20.8596 11.7975 20.8368 12.1247C20.8152 12.4432 20.7729 12.8364 20.7188 13.3337L22.334 13.5081ZM21.6569 10.5625C21.5418 10.5613 21.4282 10.5356 21.3237 10.4871C21.2193 10.4385 21.1264 10.3682 21.0513 10.2808L19.8218 11.3425C20.2616 11.8517 20.9116 12.1788 21.6385 12.1875L21.6569 10.5625ZM21.0513 10.2808C20.9236 10.1336 20.8535 9.94497 20.8542 9.75H19.2292C19.2292 10.3578 19.4534 10.9157 19.8218 11.3425L21.0513 10.2808ZM19.5 12.7584C20.2334 12.0272 20.6115 11.6588 20.8628 11.5028L20.0103 10.1205C19.5553 10.4022 19.0093 10.9525 18.3528 11.6068L19.5 12.7584ZM5.14584 9.75C5.14649 9.94497 5.07644 10.1336 4.94868 10.2808L6.17826 11.3425C6.54659 10.9157 6.77084 10.3578 6.77084 9.75H5.14584ZM7.64726 11.6068C6.99076 10.9525 6.44476 10.4011 5.98976 10.1205L5.13718 11.5028C5.38851 11.6588 5.76551 12.0272 6.50001 12.7584L7.64726 11.6068ZM4.94868 10.2808C4.87359 10.3682 4.78073 10.4385 4.6763 10.4871C4.57186 10.5356 4.45827 10.5613 4.34309 10.5625L4.36151 12.1875C4.70692 12.1834 5.04751 12.106 5.36072 11.9603C5.67393 11.8146 5.9526 11.604 6.17826 11.3425L4.94868 10.2808ZM4.34309 10.5625C4.33984 10.5625 4.33659 10.5625 4.33334 10.5625V12.1875H4.36151L4.34309 10.5625ZM5.28126 13.3337C5.23495 12.9314 5.19559 12.5283 5.16318 12.1247C5.14158 11.9115 5.13977 11.6968 5.15776 11.4833L3.54684 11.2667C3.51337 11.59 3.51191 11.9159 3.54251 12.2395C3.56743 12.5948 3.61293 13.0195 3.66601 13.507L5.28126 13.3337ZM14.3542 5.41667C14.3542 5.94208 14.0552 6.39925 13.6143 6.62458L14.352 8.07192C14.8418 7.82249 15.253 7.44245 15.5402 6.97383C15.8273 6.50521 15.9793 5.96628 15.9792 5.41667H14.3542ZM13.6143 6.62458C13.4301 6.71775 13.2232 6.77083 13 6.77083V8.39583C13.4853 8.39583 13.9458 8.27883 14.352 8.07083L13.6143 6.62458ZM15.2804 7.97333C15.0573 7.5725 14.8568 7.21175 14.6727 6.91708L13.2947 7.77833C13.4528 8.03183 13.6305 8.35358 13.8613 8.76525L15.2804 7.97333ZM13 6.77083C12.7768 6.77083 12.5688 6.71667 12.3858 6.62458L11.648 8.07192C12.0543 8.27883 12.5147 8.39583 13 8.39583V6.77083ZM12.3858 6.62458C12.1629 6.51117 11.9759 6.33829 11.8453 6.12509C11.7147 5.91189 11.6456 5.66669 11.6458 5.41667H10.0208C10.0209 5.9661 10.173 6.5048 10.4601 6.97321C10.7473 7.44162 11.1584 7.82149 11.648 8.07083L12.3858 6.62458ZM12.1388 8.76525C12.3684 8.35142 12.5472 8.03183 12.7053 7.77942L11.3273 6.91708C11.1432 7.21175 10.9428 7.5725 10.7196 7.97333L12.1388 8.76525Z" fill="#07b0f5"/>
<path id="Vector_2" d="M5.41669 18.9585H20.5834" stroke="#07b0f5" stroke-width="1.5" stroke-linecap="round"/>
</g>
</g>
</svg>
